<?xml version="1.0" encoding="utf-8"?>
<!-- Generator: Adobe Illustrator 26.3.1, SVG Export Plug-In . SVG Version: 6.00 Build 0)  -->
<svg version="1.1" id="Layer_1" xmlns="http://www.w3.org/2000/svg" xmlns:xlink="http://www.w3.org/1999/xlink" x="0px" y="0px"
	 viewBox="0 0 600 600" style="enable-background:new 0 0 600 600;" xml:space="preserve">
<style type="text/css">
	.st0{fill:#E3232C;}
</style>
<path class="st0" d="M162.7,287.3l2.8,0h14.6c1.3,4,2,8.3,2,12.7c0,2.3-0.2,4.6-0.6,6.8c-11.9,2-25.2,3.1-39.2,3.1
	c-15.1,0-29.3-1.3-41.8-3.6h-0.1c-0.3-1.7-0.4-3.4-0.5-5.2h17.9h2.8c2,0,3.5-1.6,3.5-3.5h8.2h2.8c2,0,3.5-1.6,3.5-3.5
	c0-2-1.6-3.5-3.5-3.5h-2.8h-31.4c4.3-18.1,20.5-31.6,39.9-31.6c14,0,26.4,7,33.8,17.7h-23.9h-2.8c-2,0-3.5,1.6-3.5,3.5
	c0,2,1.6,3.5,3.5,3.5h2.8h8.2C159.1,285.7,160.7,287.3,162.7,287.3L162.7,287.3z M115.4,328.2v3.8c7,5.6,15.9,9,25.6,9
	c9.7,0,18.6-3.4,25.6-9v-3.8H115.4z M107.1,323.2h29.7v-4.9c-10.5,0.1-20.6,0.4-29.8,1v3.6C107,323,107.1,323.1,107.1,323.2
	 M174.9,323.2c0.1-0.1,0.1-0.2,0.2-0.3v-3.6c-9.3-0.6-19.3-0.9-29.8-1v4.9L174.9,323.2L174.9,323.2z M207.4,318.2
	c8.8,0,14.5-4.6,14.5-11.4c0-6.2-5-9.8-12.7-10.5l-3.4-0.3c-3.7-0.3-5.4-2.3-5.4-4.6c0-3,2.2-5.6,6.8-5.6c4.6,0,6.8,2.9,6.8,5.9h6.3
	c0-7-5.1-11.5-13.1-11.5c-7.9,0-13,4.4-13,11.2c0,5.9,4.4,9.8,11.1,10.3l3.4,0.3c4.6,0.4,6.9,2.2,6.9,4.8c0,3.2-2.6,5.8-8.2,5.8
	c-6.1,0-8.4-3.1-8.4-6.2h-6.3C192.7,313.2,198,318.2,207.4,318.2z M245.5,318.2c13,0,18.9-10.5,18.9-18.5v-1.1
	c0-8.8-6.3-18.4-18.9-18.4c-12.7,0-18.9,9.7-18.9,18.4v1.1C226.6,307.7,232.5,318.2,245.5,318.2z M245.5,312.3
	c-7.7,0-12.5-6.1-12.5-13.1c0-7.4,4.8-13.1,12.5-13.1c7.7,0,12.5,5.7,12.5,13.1C258,306.2,253.2,312.3,245.5,312.3z M293.7,317.3
	h7.5l-9.9-13.4c4.4-1.6,7-5,7-10.5v-0.8c0-7.9-5.4-11.6-13.8-11.6h-12.9v36.3h6.4v-12.4h6.5h0.3L293.7,317.3L293.7,317.3z
	 M278,286.4h7.3c4.1,0,6.6,2.7,6.6,6.6c0,3.9-2.6,6.6-6.6,6.6H278V286.4z M332.6,317.3h6.6l-12.9-36.1h-10.5l-12.5,36.1h6.4l3.4-9.9
	h16.1L332.6,317.3z M314.8,301.9l5.2-15.3h1.8l5.3,15.3H314.8z M382.2,281.2l-8.8,0l-9.5,22.3H363l-9.5-22.3h-8.6v36.1h5.8v-28.9
	l9.1,21.5h6.8l9.2-21.6v29h6.3V281.2L382.2,281.2z M391.7,281.2v36.1h6.4v-36.1H391.7L391.7,281.2z M431.5,286.8l0-5.6H404v5.6h10.6
	v30.5h6.4v-30.5H431.5L431.5,286.8z M448.5,318.2c8.8,0,14.5-4.6,14.5-11.4c0-6.2-5-9.8-12.7-10.5l-3.4-0.3
	c-3.7-0.3-5.4-2.3-5.4-4.6c0-3,2.2-5.6,6.8-5.6c4.6,0,6.8,2.9,6.8,5.9h6.3c0-7-5.1-11.5-13.1-11.5c-7.9,0-13,4.4-13,11.2
	c0,5.9,4.4,9.8,11.1,10.3l3.4,0.3c4.6,0.4,6.9,2.2,6.9,4.8c0,3.2-2.6,5.8-8.2,5.8c-6.1,0-8.4-3.1-8.4-6.2h-6.3
	C433.9,313.2,439.1,318.2,448.5,318.2z M484.7,318.2c10,0,15.3-6.1,15.3-15.4v-21.6h-6.4v22.1c0,5.5-3.2,9-9,9c-5.8,0-9-3.6-9-9
	v-22.1h-6.4v21.6C469.3,312.1,474.6,318.2,484.7,318.2z M284.6,285.4h1.6 M289.8,301.7h3.8v-1.7h-3.8V301.7z M436.8,333.1l2.4-0.9
	c-0.9-2.2-1.9-4.4-3-6.6l-2.4,1C435,329,436,331.2,436.8,333.1z M446.4,325.4c-0.1,2.2-0.3,3.9-0.6,5.4c-0.4,1.4-1,2.6-1.8,3.6
	c-0.8,1-1.8,1.7-3,2.2c-1.2,0.5-2.8,0.9-4.6,1.2l0.5,2.3c2.9-0.4,5.2-1.1,6.9-2.1c1.7-1,3-2.5,3.8-4.5c0.8-2,1.3-4.6,1.4-7.9
	L446.4,325.4z M451.2,332.6l12.1,0c-0.4,1.8-1.4,3.1-2.9,4c-1.6,0.9-3.8,1.4-6.5,1.5l0.4,2.3c4-0.2,7-1.1,8.9-2.7
	c1.9-1.6,2.9-3.9,2.9-6.9l0-0.4l-14.8,0L451.2,332.6z M464.9,327.8l0-2.3l-12.3,0l0,2.3L464.9,327.8z M482.2,340.3l0.3-2.5
	c-4.9-0.8-9.7-1.3-14.4-1.5l-0.1,2.5C472.5,339,477.3,339.5,482.2,340.3z M481.6,328.9l0.3-2.4c-4.3-0.6-8.6-1-13-1.1l-0.1,2.4
	C472.9,327.9,477.2,328.3,481.6,328.9z M480.4,334.3l0.3-2.5c-3.9-0.7-7.6-1.1-11-1.2l-0.2,2.5C473.1,333.2,476.7,333.6,480.4,334.3
	z M486.2,333l2.4-0.5c-0.6-2.4-1.2-4.5-1.7-6.3l-2.4,0.5C485.1,328.5,485.6,330.6,486.2,333z M497.5,325.7c0,2.2-0.2,4-0.6,5.4
	c-0.4,1.4-0.9,2.6-1.7,3.6c-0.8,1-1.8,1.7-3,2.2c-1.2,0.5-2.8,0.9-4.7,1.1l0.5,2.3c2.9-0.3,5.2-1,7-2c1.7-1,3-2.5,3.8-4.5
	c0.8-2,1.3-4.6,1.3-7.9L497.5,325.7z M491.3,332.6l2.4-0.5c-0.6-2.4-1.2-4.6-1.7-6.5l-2.4,0.5C490.2,328.2,490.8,330.4,491.3,332.6z
	"/>
</svg>
